<?xml version="1.0" standalone="no"?>
<!DOCTYPE svg PUBLIC "-//W3C//DTD SVG 20010904//EN"
 "http://www.w3.org/TR/2001/REC-SVG-20010904/DTD/svg10.dtd">
<svg version="1.0" xmlns="http://www.w3.org/2000/svg"
 width="1024.000000pt" height="1024.000000pt" viewBox="0 0 1024.000000 1024.000000"
 preserveAspectRatio="xMidYMid meet">

<g transform="translate(0.000000,1024.000000) scale(0.100000,-0.100000)"
fill="#000000" stroke="none">
<path d="M5115 8950 c-27 -10 -64 -19 -81 -19 -19 -1 -46 -13 -69 -31 -21 -16
-47 -30 -57 -30 -11 0 -36 -17 -55 -37 -122 -132 -143 -158 -179 -228 -11 -22
-29 -56 -40 -75 -16 -30 -19 -56 -19 -171 l0 -137 -110 -17 c-341 -51 -756
-201 -1125 -404 -290 -159 -495 -315 -740 -560 -522 -523 -851 -1174 -961
-1901 -18 -118 -22 -189 -22 -385 0 -630 124 -1121 417 -1656 180 -328 431
-639 736 -910 215 -191 492 -375 787 -523 327 -163 723 -274 1157 -322 189
-21 684 -15 836 10 351 57 613 131 905 252 416 174 854 494 1167 852 57 65
105 119 109 122 3 3 44 57 91 120 237 320 368 571 493 945 96 286 133 449 170
745 26 208 17 611 -19 815 -91 509 -255 923 -530 1335 -143 215 -419 526 -621
700 -175 150 -471 344 -704 460 -205 102 -392 174 -681 261 -41 12 -76 23 -77
24 -1 0 5 28 13 60 21 77 14 167 -15 206 -15 21 -21 43 -21 84 0 69 -27 131
-76 176 -20 19 -44 43 -53 53 -42 51 -62 65 -97 72 -21 4 -60 24 -86 45 -61
47 -126 73 -175 67 -21 -3 -58 1 -82 9 -60 18 -126 15 -186 -7z m160 -124 c30
-13 56 -34 65 -51 l15 -28 5 29 c4 24 10 30 38 32 47 5 119 -33 151 -79 22
-32 32 -38 62 -39 34 0 37 -3 44 -36 5 -29 2 -40 -15 -56 -18 -17 -24 -18 -50
-6 -17 7 -32 20 -35 28 -4 12 -148 90 -167 90 -3 0 -8 -8 -12 -17 -3 -10 -10
-25 -15 -33 -5 -8 -15 -30 -23 -48 -13 -31 -17 -34 -66 -37 -40 -3 -54 0 -59
11 -8 22 5 60 33 93 24 29 25 31 6 31 -11 0 -28 3 -38 7 -14 5 -16 2 -11 -17
3 -13 -1 -39 -8 -58 -14 -31 -18 -34 -50 -30 -20 2 -35 0 -35 -7 -1 -15 -50
44 -50 61 0 8 -4 14 -8 14 -15 0 -22 -12 -15 -24 13 -20 12 -36 -2 -36 -7 0
-15 5 -17 12 -3 8 -22 4 -61 -15 -31 -15 -57 -30 -57 -33 0 -3 7 -4 15 0 20 7
19 -4 -5 -34 -11 -14 -20 -19 -20 -12 0 6 -4 12 -10 12 -6 0 -6 -9 0 -24 7
-21 6 -26 -11 -31 -39 -13 -69 -57 -69 -101 0 -24 6 -47 14 -53 13 -11 13 -17
0 -46 -17 -42 -18 -129 -1 -142 6 -6 23 -13 37 -16 20 -5 25 -13 27 -41 2 -47
28 -93 65 -116 48 -29 10 -38 -41 -9 -42 23 -71 75 -71 124 0 18 -5 25 -18 25
-52 0 -88 103 -60 170 13 32 13 38 -3 64 -21 34 -16 74 12 122 11 18 17 38 14
46 -4 9 4 22 19 31 13 9 27 31 31 49 9 43 20 55 56 63 21 5 29 12 29 29 0 44
22 60 73 53 37 -5 45 -4 41 7 -9 23 15 56 39 56 12 0 34 -7 49 -14 26 -14 28
-13 34 8 6 23 35 44 64 45 8 1 38 -10 65 -23z m216 -185 c34 -28 16 -55 -38
-59 -35 -3 -41 0 -47 20 -13 48 -8 58 28 58 19 0 44 -9 57 -19z m249 -83 c0
-17 -4 -27 -10 -23 -6 3 -8 17 -6 31 3 14 1 22 -5 19 -5 -4 -6 -11 -3 -17 4
-6 2 -8 -4 -5 -5 4 -8 16 -5 27 8 30 33 6 33 -32z m-665 33 c3 -5 22 -15 43
-22 58 -19 82 -69 26 -55 -13 4 -47 -1 -75 -10 -39 -13 -55 -14 -75 -5 -49 22
-39 61 21 87 36 16 52 17 60 5z m494 -10 c12 -8 12 -12 2 -25 -16 -19 -31 -12
-31 15 0 21 7 23 29 10z m-109 -38 c45 -9 74 -66 51 -101 -5 -8 -32 -14 -69
-15 -66 -2 -67 -2 -87 69 -7 27 40 69 64 58 9 -4 27 -9 41 -11z m-155 -35 c29
-13 35 -57 9 -82 -22 -23 -80 -20 -104 4 -24 24 -25 38 -4 68 17 25 58 29 99
10z m-337 -20 c18 -18 14 -38 -8 -38 -13 0 -20 -7 -20 -18 0 -18 -5 -19 -51
-13 -4 1 -9 8 -12 15 -4 10 -1 13 8 9 9 -3 18 3 21 13 16 43 39 55 62 32z
m169 -25 c3 -74 -3 -83 -50 -83 -59 0 -79 17 -75 60 3 34 4 35 55 40 28 3 55
9 59 13 4 4 8 7 9 7 0 0 2 -17 2 -37z m493 -73 c0 -23 -27 -33 -34 -13 -4 9
-4 24 0 35 4 15 9 17 20 7 8 -6 14 -19 14 -29z m-202 -10 c17 -11 32 -28 31
-37 0 -10 -2 -13 -5 -8 -2 6 -28 8 -59 7 -30 -2 -55 -1 -55 2 0 14 33 56 44
56 6 0 26 -9 44 -20z m-277 -32 c-6 -18 -17 -24 -50 -26 -55 -4 -52 9 7 29 26
9 48 17 49 18 1 0 -1 -9 -6 -21z m-485 -272 c3 -8 16 -17 30 -20 19 -5 24 -13
24 -37 0 -23 13 -44 52 -85 28 -30 49 -56 47 -58 -11 -10 -218 -68 -329 -91
-69 -14 -163 -38 -210 -51 -101 -30 -380 -133 -397 -146 -9 -7 -4 -25 19 -72
l30 -62 93 37 c81 32 327 109 351 109 5 0 -9 -14 -31 -32 -22 -18 -74 -65
-115 -105 -46 -44 -92 -78 -116 -87 -151 -53 -464 -219 -536 -284 -26 -24 -27
-24 -74 -8 -59 20 -116 21 -152 2 -26 -14 -29 -13 -59 23 l-32 38 42 40 c23
22 85 74 138 116 54 42 106 88 118 103 35 44 27 72 -46 173 -53 74 -63 95 -52
102 8 5 70 38 139 73 245 127 645 262 930 316 120 23 129 23 136 6z m1297 -66
c111 -28 316 -102 462 -166 123 -54 279 -136 304 -159 11 -11 2 -29 -53 -110
-36 -53 -66 -101 -66 -106 0 -39 56 -98 218 -229 l103 -83 -40 -41 c-39 -39
-42 -40 -74 -28 -43 15 -104 15 -142 -2 -28 -12 -34 -9 -150 65 -123 78 -162
101 -344 196 -58 30 -117 64 -133 76 -43 33 -189 170 -185 174 5 4 226 -69
321 -107 42 -16 81 -30 86 -30 8 0 50 100 50 119 0 22 -399 168 -592 216 -38
10 -68 21 -68 26 0 6 15 18 33 29 17 11 41 38 51 60 11 23 32 48 47 57 15 9
32 27 38 40 13 28 30 29 134 3z m-1066 -231 c-25 -15 -72 -62 -72 -74 0 -5
-10 -11 -22 -13 -17 -3 -23 -10 -23 -28 0 -19 -5 -24 -25 -24 -20 0 -25 -5
-25 -25 0 -24 -31 -51 -44 -38 -3 3 -6 -6 -6 -20 0 -22 -5 -27 -25 -27 -20 0
-24 -5 -22 -22 1 -18 -3 -23 -20 -22 -18 0 -23 -5 -23 -23 0 -16 -6 -23 -20
-23 -13 0 -20 -7 -20 -19 0 -20 -25 -35 -41 -25 -6 3 -7 -4 -4 -19 5 -19 0
-29 -20 -45 -25 -20 -26 -22 -9 -46 12 -19 13 -26 4 -26 -8 0 -31 -8 -52 -17
-38 -17 -50 -33 -24 -33 7 0 19 -7 26 -15 20 -24 -36 -68 -118 -94 -92 -29
-108 -41 -56 -41 48 0 73 -20 50 -39 -9 -7 -24 -10 -37 -6 -14 5 -19 4 -15 -4
4 -6 0 -11 -9 -11 -8 0 -20 -11 -25 -24 -4 -13 -20 -26 -34 -30 -28 -7 -36
-26 -11 -26 19 0 19 -1 -2 -50 -38 -87 -60 -19 -24 75 38 98 83 191 123 253
22 34 38 65 36 68 -7 7 -70 -67 -114 -134 -89 -133 -151 -296 -177 -465 -11
-71 -15 -80 -45 -98 l-32 -21 6 49 c10 89 25 158 56 258 63 208 159 353 391
591 189 195 295 273 442 325 57 20 91 25 62 8z m17 -95 c4 -10 -1 -25 -10 -35
-16 -17 -15 -19 10 -28 27 -11 35 -36 14 -44 -7 -2 -20 0 -30 4 -9 5 -29 4
-48 -2 -34 -12 -33 -20 2 -24 13 -1 26 -3 29 -4 3 0 11 -12 17 -25 10 -22 8
-26 -9 -31 -11 -4 -31 -4 -45 -1 -13 4 -36 3 -51 0 -27 -7 -26 -7 18 -28 27
-13 45 -29 47 -41 2 -18 -3 -20 -45 -19 -49 1 -108 -21 -132 -50 -16 -19 -14
-19 28 -5 17 6 31 15 31 20 0 16 26 10 54 -12 32 -25 36 -64 5 -56 -24 7 -215
-58 -200 -68 13 -7 91 2 140 17 25 8 36 7 47 -3 7 -8 10 -19 6 -25 -11 -16
-75 -43 -123 -50 -57 -9 -125 -39 -109 -49 8 -5 8 -11 1 -19 -20 -24 0 -23 74
2 62 21 78 23 97 13 23 -11 23 -11 1 -7 -14 2 -20 0 -17 -9 6 -14 -32 -45 -55
-45 -7 0 -19 -7 -26 -16 -7 -10 -29 -17 -61 -19 -72 -3 -94 3 -94 29 0 23 25
66 47 79 8 5 11 17 8 27 -7 22 85 202 159 309 51 74 191 231 206 231 4 0 11
-7 14 -16z m-1581 -116 c9 -18 24 -43 33 -55 14 -20 14 -23 1 -23 -8 0 -20 -7
-27 -15 -7 -8 -26 -15 -42 -15 -18 0 -27 -4 -23 -11 9 -14 -31 -56 -61 -63
-14 -4 -22 -10 -20 -15 3 -5 -2 -15 -11 -22 -13 -11 -17 -11 -20 -1 -3 6 -12
12 -20 12 -13 0 -13 -3 -3 -15 18 -22 -5 -48 -31 -35 -15 8 -17 7 -13 -5 4 -8
-1 -17 -10 -21 -9 -3 -13 -10 -10 -15 3 -5 -2 -9 -11 -9 -8 0 -18 -7 -21 -15
-4 -8 -12 -15 -20 -15 -8 0 -14 -6 -14 -14 0 -11 -8 -12 -37 -6 -36 8 -37 8
-15 -7 12 -9 22 -21 22 -27 0 -6 -5 -4 -11 4 -9 12 -10 11 -6 -8 3 -12 1 -19
-4 -16 -12 7 -51 -5 -45 -15 3 -4 -5 -7 -17 -7 -13 1 -21 -4 -19 -11 1 -7 -2
-13 -7 -13 -5 0 -12 -8 -16 -18 -6 -21 -51 -45 -66 -36 -5 3 -9 2 -8 -3 3 -13
-19 -60 -32 -68 -6 -4 -15 -2 -19 4 -5 9 -10 8 -19 -3 -7 -8 -8 -17 -2 -20 5
-3 7 -15 4 -26 -3 -11 -10 -17 -15 -14 -5 3 -7 13 -4 21 3 8 1 11 -4 8 -6 -3
-10 -16 -10 -29 0 -19 -5 -22 -29 -21 -17 1 -29 -3 -28 -9 1 -5 -4 -10 -11
-11 -18 0 -43 -35 -35 -48 3 -6 1 -7 -5 -3 -13 8 -72 -65 -72 -89 0 -9 -9 -19
-20 -22 -11 -3 -18 -9 -15 -13 3 -4 -2 -11 -11 -14 -9 -3 -14 -13 -10 -21 3
-8 0 -17 -6 -21 -7 -5 -8 -2 -3 6 5 9 4 11 -3 6 -7 -4 -12 -13 -12 -20 0 -7
-9 -21 -20 -31 -12 -10 -18 -25 -15 -32 2 -8 1 -11 -5 -8 -5 3 -17 -9 -26 -27
-9 -18 -20 -35 -25 -38 -4 -3 -9 -12 -11 -20 -2 -8 -10 -22 -18 -32 -27 -30
-80 -135 -72 -143 4 -5 2 -5 -4 -2 -6 4 -21 -15 -34 -46 -13 -29 -39 -86 -58
-127 -77 -169 -154 -400 -191 -580 -42 -201 -53 -303 -58 -565 -10 -476 44
-834 185 -1230 58 -163 181 -426 267 -570 26 -44 58 -98 70 -120 12 -22 32
-58 45 -80 31 -54 14 -35 -53 56 -217 297 -406 684 -497 1018 -148 545 -149
1163 -3 1665 178 614 573 1208 1076 1622 62 50 328 243 338 243 3 1 13 -14 22
-31z m3748 -104 c565 -421 963 -970 1172 -1620 69 -213 102 -365 132 -609 18
-140 20 -461 4 -585 -6 -47 -11 -92 -11 -100 0 -34 -29 -195 -37 -203 -16 -16
-23 109 -8 163 4 14 4 19 1 13 -16 -35 -18 2 -11 164 31 674 -76 1149 -382
1708 -78 141 -99 175 -160 260 -159 218 -249 327 -265 318 -6 -3 -8 -3 -4 2
11 11 -12 36 -25 28 -6 -3 -7 -1 -3 6 9 13 -99 121 -118 118 -6 -1 -10 3 -9
10 2 11 -48 59 -143 138 -26 22 -65 55 -85 73 -36 31 -56 42 -44 22 12 -19 -2
-10 -26 17 -19 22 -20 25 -4 13 18 -13 18 -12 -1 5 -55 51 -150 115 -177 121
-11 2 -22 6 -26 10 -3 4 3 4 14 1 18 -6 19 -6 3 6 -16 12 -16 16 -2 35 l15 21
52 -32 c29 -17 95 -64 148 -103z m-1977 65 c15 -12 26 -25 24 -31 -3 -7 -148
-19 -148 -12 0 17 19 39 44 50 42 18 49 17 80 -7z m239 -18 c16 -16 14 -17
-32 -19 -52 -2 -65 6 -55 32 7 19 61 11 87 -13z m1490 4 c-3 -9 -8 -14 -10
-11 -3 3 -2 9 2 15 9 16 15 13 8 -4z m-1470 -76 c9 -12 17 -30 17 -41 0 -15
-4 -18 -17 -13 -10 5 -46 10 -80 13 -57 4 -63 6 -63 27 0 13 9 27 23 33 32 16
99 6 120 -19z m-255 1 c39 -37 29 -48 -33 -37 -38 7 -66 7 -90 0 -38 -12 -45
-1 -26 36 15 28 119 29 149 1z m491 10 c27 -14 24 -59 -3 -64 -74 -15 -98 -15
-92 1 4 8 1 21 -4 29 -9 10 -5 16 17 28 33 18 57 20 82 6z m-495 -101 c14 -17
26 -34 26 -38 0 -5 -28 -8 -62 -8 -35 -1 -80 -4 -100 -8 l-38 -7 0 35 c0 45
18 56 92 57 51 0 59 -3 82 -31z m240 17 c44 -18 71 -55 53 -73 -10 -10 -20 -9
-54 2 -23 8 -65 15 -93 16 -27 1 -50 5 -50 9 0 4 9 19 21 34 24 30 69 35 123
12z m280 -22 c9 -3 16 -15 16 -25 0 -16 -8 -19 -46 -19 -25 0 -54 -5 -65 -10
-27 -15 -37 14 -14 40 18 20 75 27 109 14z m-537 -79 c23 -16 21 -50 -2 -59
-33 -12 -182 -18 -189 -7 -15 24 13 45 81 62 88 22 85 21 110 4z m320 -27 c16
-13 17 -45 1 -50 -19 -7 -182 24 -190 36 -10 16 10 44 34 48 29 5 137 -19 155
-34z m233 -13 c63 -40 51 -56 -35 -48 -70 7 -78 10 -67 29 7 12 39 36 60 43 1
1 20 -10 42 -24z m-285 -82 c45 -15 48 -17 27 -26 -12 -6 -22 -14 -22 -19 0
-18 -104 3 -123 25 -18 20 -18 22 -1 34 18 13 38 11 119 -14z m-287 -15 c4
-19 -35 -34 -116 -44 -43 -5 -56 -3 -72 11 -11 10 -20 25 -20 34 0 14 15 16
102 16 88 0 103 -2 106 -17z m618 -66 c-3 -2 -30 0 -61 3 -31 4 -52 11 -46 15
11 6 114 -10 107 -18z m617 -24 c120 -75 117 -68 42 -115 l-65 -42 -11 42 c-6
23 -22 68 -35 99 -25 61 -27 68 -18 68 3 0 42 -23 87 -52z m-2376 -25 c-8 -16
-22 -52 -31 -80 -10 -29 -21 -53 -24 -53 -4 0 -34 18 -66 40 l-60 39 85 40
c104 49 114 50 96 14z m3228 -115 c184 -189 365 -445 500 -710 77 -150 81
-167 39 -168 -19 0 -136 -51 -255 -110 l-116 -58 -23 57 c-13 31 -43 98 -67
150 -24 52 -40 98 -36 101 73 64 138 126 136 131 -1 4 4 10 13 13 9 4 12 2 8
-5 -6 -10 45 19 56 31 3 4 14 10 24 13 10 4 16 10 13 14 -4 3 -2 12 4 20 9 9
8 17 0 27 -6 7 -8 22 -4 31 4 12 3 16 -5 11 -12 -7 -32 23 -25 40 2 6 -6 19
-18 30 -21 17 -22 18 -16 1 5 -12 3 -16 -4 -11 -7 4 -49 6 -95 5 l-84 -2 0 27
c0 24 -3 26 -29 21 -16 -3 -34 -1 -41 6 -10 9 -11 9 -6 0 3 -6 1 -15 -5 -19
-7 -4 -9 -3 -5 4 3 6 1 14 -4 17 -7 4 -9 20 -5 38 5 23 3 28 -4 17 -8 -12 -11
-12 -17 3 -4 10 -12 16 -19 13 -12 -4 -29 27 -26 47 1 4 -3 6 -7 5 -5 -2 -21
11 -35 28 -22 26 -27 42 -27 87 0 31 -5 78 -12 105 -11 50 -11 51 22 86 24 25
38 33 49 26 9 -4 66 -59 126 -122z m-3959 88 c28 -31 29 -36 18 -68 -6 -19
-15 -72 -19 -118 -5 -59 -12 -91 -25 -105 -9 -11 -35 -50 -57 -87 -37 -62 -41
-66 -56 -50 -16 15 -17 15 -17 -8 0 -21 2 -22 11 -10 8 11 9 7 5 -20 -7 -37
-21 -51 -43 -43 -7 3 -13 -1 -13 -8 0 -11 -3 -11 -10 1 -9 13 -11 13 -20 0 -6
-10 -10 -11 -10 -2 0 7 -14 12 -34 12 -42 0 -45 5 -48 64 -1 29 -4 42 -9 34
-7 -10 -9 -10 -9 0 0 6 -5 12 -11 12 -8 0 -8 -4 -1 -13 8 -9 7 -20 -2 -39 -10
-19 -11 -29 -3 -37 8 -8 1 -20 -26 -42 -21 -18 -36 -37 -33 -45 3 -8 0 -11 -8
-8 -8 3 -17 1 -21 -5 -3 -6 -1 -11 5 -11 7 0 4 -7 -5 -16 -9 -9 -19 -13 -23
-10 -3 4 -1 10 6 15 9 5 8 12 -3 27 -11 13 -14 14 -13 4 2 -8 -3 -14 -10 -12
-8 1 -11 -2 -8 -7 4 -5 1 -11 -5 -13 -6 -2 8 -13 32 -23 24 -11 52 -29 62 -40
10 -11 15 -14 12 -7 -6 11 -3 12 14 3 22 -12 30 -27 9 -16 -7 4 -2 -3 12 -14
14 -12 44 -38 68 -59 24 -20 52 -44 64 -53 20 -16 20 -16 -14 -85 -19 -38 -48
-103 -63 -144 -16 -41 -31 -78 -35 -83 -3 -4 -53 17 -111 47 -57 30 -144 71
-194 92 -49 20 -92 39 -94 41 -2 1 30 71 71 155 68 138 212 360 332 513 89
114 278 314 297 315 3 0 19 -15 35 -34z m1837 20 c7 -17 -62 -31 -77 -16 -6 6
-21 11 -35 12 -15 1 -1 4 29 8 30 4 60 7 66 8 7 1 14 -4 17 -12z m-742 -22
c-18 -8 -36 -13 -39 -10 -6 7 37 25 58 25 8 -1 0 -7 -19 -15z m-742 -72 c78
-33 280 -148 309 -176 10 -10 11 -37 6 -115 l-7 -102 -41 38 c-130 123 -330
276 -393 302 -18 7 -35 22 -38 32 -4 10 -10 19 -15 19 -13 0 -21 -31 -27 -106
-5 -57 -2 -77 11 -95 9 -13 16 -18 16 -12 0 7 7 10 16 6 13 -5 15 3 12 48 -2
30 -6 56 -9 59 -4 3 -3 14 2 25 7 19 8 19 8 -3 1 -15 5 -21 13 -16 8 5 9 2 5
-9 -3 -10 -3 -17 2 -17 25 0 167 -249 190 -335 24 -89 17 -113 -61 -209 l-73
-89 -32 69 c-81 172 -126 378 -121 552 3 103 6 123 23 142 43 47 76 46 204 -8z
m3262 25 c26 -19 32 -55 30 -167 -2 -167 -42 -375 -98 -519 -39 -98 -40 -99
-85 -49 -20 24 -56 67 -79 95 -40 51 -41 55 -37 110 5 67 38 138 128 276 33
52 60 101 60 109 0 8 14 34 30 56 19 26 25 42 17 42 -20 0 -186 -116 -242
-169 -27 -26 -72 -65 -100 -87 -27 -21 -51 -42 -53 -46 -5 -11 -42 -10 -42 1
0 5 5 11 10 13 6 2 0 14 -13 28 -12 14 -22 34 -22 45 0 11 -4 23 -9 26 -26 20
36 72 177 148 167 90 284 122 328 88z m-4163 -71 c-7 -8 -15 -12 -17 -11 -5 6
10 25 20 25 5 0 4 -6 -3 -14z m723 -9 c-10 -9 -11 -8 -5 6 3 10 9 15 12 12 3
-3 0 -11 -7 -18z m-821 -57 c-6 -11 -13 -20 -16 -20 -2 0 0 9 6 20 6 11 13 20
16 20 2 0 0 -9 -6 -20z m2613 -52 c9 -1 17 -6 17 -10 0 -4 5 -8 11 -8 6 0 28
-19 48 -41 l36 -41 41 41 c38 37 47 41 91 41 90 0 193 -72 193 -135 0 -15 -4
-13 -25 9 -26 28 -58 38 -35 11 7 -9 11 -17 9 -20 -6 -6 -178 34 -201 46 -13
7 -23 8 -27 1 -10 -16 -49 -7 -74 16 -30 29 -47 28 -47 -2 0 -22 -4 -25 -47
-26 -127 -3 -145 -1 -158 16 -11 16 -13 16 -30 -4 -22 -25 -35 -20 -27 11 9
37 33 67 71 88 34 18 59 19 154 7z m-276 -52 c22 -26 23 -30 9 -38 -10 -5 -24
-5 -36 2 -17 9 -22 7 -32 -15 -11 -24 -22 -29 -111 -51 -32 -7 -46 -24 -20
-24 10 0 47 7 82 15 102 24 105 -5 7 -76 -42 -31 -92 -38 -141 -19 -23 9 -26
8 -23 -7 6 -32 68 -39 137 -16 l61 20 0 -23 c0 -12 -11 -31 -25 -42 -13 -11
-22 -21 -20 -24 3 -3 -13 -11 -34 -18 -33 -11 -48 -11 -86 0 -26 7 -49 19 -52
26 -8 21 12 159 22 157 6 0 15 5 22 12 9 10 6 14 -18 19 -29 5 -29 6 -15 33
15 30 58 73 91 92 12 7 49 10 89 8 61 -2 71 -6 93 -31z m-358 -40 c15 -8 33
-22 40 -30 11 -14 11 -16 -4 -16 -10 0 -26 7 -36 16 -16 14 -18 13 -24 -15 -3
-17 -4 -35 -1 -40 9 -14 -111 -71 -148 -71 -38 0 -76 25 -76 49 0 24 57 76
110 100 53 24 100 26 139 7z m1225 -1 c81 -21 139 -57 154 -97 15 -41 3 -50
-55 -44 -48 5 -69 15 -136 63 -38 27 -51 31 -67 23 -40 -22 -41 -4 -1 39 34
36 30 35 105 16z m-536 -64 c8 -53 -63 -88 -156 -75 -61 8 -94 31 -86 60 5 21
10 22 83 17 59 -4 84 -2 107 10 36 20 48 17 52 -12z m251 -17 c82 -30 110 -54
86 -74 -31 -25 -215 40 -215 77 0 29 44 29 129 -3z m-2602 -46 c-3 -7 -5 -2
-5 12 0 14 2 19 5 13 2 -7 2 -19 0 -25z m1313 8 c0 -23 -90 -116 -128 -131
-19 -8 -47 -15 -63 -15 -30 0 -38 -13 -17 -26 21 -13 66 -5 112 21 54 30 56
30 56 6 0 -23 -94 -101 -124 -102 -35 -2 -60 2 -73 13 -20 16 -16 -12 4 -34
10 -11 30 -18 55 -18 40 0 47 -14 18 -37 -19 -16 -43 -17 -34 -1 5 8 2 9 -10
5 -10 -4 -26 -7 -36 -7 -10 0 -31 -14 -48 -31 l-31 -32 15 48 c8 27 14 60 14
74 0 63 31 146 68 184 67 69 222 127 222 83z m1932 -10 c55 -24 122 -81 153
-128 16 -26 16 -30 1 -53 -19 -29 -31 -32 -40 -10 -3 8 -15 15 -26 15 -24 0
-25 -6 -5 -27 20 -19 11 -30 -10 -13 -8 7 -15 10 -15 6 0 -12 -72 33 -87 54
-21 30 -10 35 34 14 21 -10 58 -18 83 -18 39 -1 45 2 48 22 3 22 -12 30 -23
12 -10 -16 -25 -12 -19 5 7 18 3 19 -29 4 -29 -13 -66 6 -86 45 -7 12 -28 29
-47 36 -19 8 -34 21 -34 30 0 38 29 39 102 6z m-348 -27 c54 -25 76 -30 112
-26 40 4 45 2 50 -19 9 -34 -20 -74 -52 -74 -57 0 -184 87 -184 127 0 13 2 23
4 23 2 0 34 -14 70 -31z m-1269 -1 c-4 -13 -9 -30 -11 -40 -3 -9 -32 -30 -65
-47 -68 -35 -132 -41 -147 -15 -9 15 -1 89 11 100 7 7 49 -15 62 -32 8 -10 24
-6 75 21 78 40 83 41 75 13z m905 -11 c112 -51 137 -55 170 -35 25 16 34 6 26
-27 -8 -33 -65 -59 -109 -49 -35 7 -94 38 -117 60 -13 14 -13 17 5 31 20 15
20 15 -2 10 -18 -4 -23 -1 -23 15 0 10 3 17 8 15 4 -2 23 -11 42 -20z m-274
-16 c39 1 76 -1 83 -5 22 -14 11 -43 -21 -57 -42 -17 -92 -15 -159 9 -53 18
-67 36 -55 68 5 13 10 12 43 -1 25 -11 63 -15 109 -14z m2074 -3 c0 6 8 12 17
12 15 0 14 -2 -3 -15 -25 -19 -34 -19 -34 3 0 14 2 15 10 2 6 -10 10 -11 10
-2z m-1453 -95 c-8 -7 -37 9 -31 19 3 5 12 4 20 -3 8 -6 13 -14 11 -16z
m-1907 -7 c0 -25 -82 -112 -140 -149 -17 -10 -27 -23 -24 -28 8 -14 27 -10 54
11 24 19 70 27 70 13 -1 -5 -9 -24 -19 -43 -15 -26 -25 -34 -47 -35 -22 0 -29
-5 -29 -20 0 -24 -42 -47 -72 -40 -14 3 -23 1 -23 -7 0 -18 31 -48 52 -48 10
0 18 -7 18 -15 0 -24 -67 -20 -80 4 -25 47 4 143 72 237 30 42 144 144 160
144 5 0 8 -11 8 -24z m650 3 c0 -24 -66 -92 -81 -83 -5 3 -16 -2 -25 -10 -26
-27 -89 -20 -119 11 -27 30 -30 40 -16 62 6 10 13 11 29 2 34 -18 93 -12 147
13 63 31 65 31 65 5z m905 -19 c-3 -5 -12 -10 -18 -10 -7 0 -6 4 3 10 19 12
23 12 15 0z m385 -10 c13 -11 18 -20 12 -20 -10 0 -42 27 -42 36 0 8 7 4 30
-16z m593 2 c-2 -6 3 -9 10 -6 7 2 37 -21 67 -53 36 -37 42 -46 17 -25 -21 18
-42 32 -48 32 -6 0 -8 4 -5 9 3 5 -1 12 -10 15 -8 3 -12 2 -9 -4 9 -15 -11
-12 -22 3 -18 22 -24 49 -11 44 7 -2 12 -9 11 -15z m-2255 -62 c-7 -11 -21
-20 -30 -20 -25 0 -22 7 10 24 35 19 34 20 20 -4z m2840 -60 c29 -43 79 -134
111 -202 113 -238 175 -442 205 -686 16 -122 21 -371 8 -342 -6 13 -20 16 -60
11 -7 0 -11 -5 -7 -10 3 -5 -18 -1 -47 9 -29 10 -54 23 -56 29 -2 6 -8 11 -13
11 -5 0 -4 -11 3 -24 14 -33 -7 -56 -45 -49 -37 7 -34 22 3 17 17 -3 30 -1 30
5 0 6 -10 11 -22 11 -20 0 -19 3 15 35 20 19 32 35 27 35 -16 0 -91 -72 -94
-90 -1 -8 -8 -26 -15 -39 -7 -12 -11 -32 -8 -42 3 -10 1 -19 -4 -19 -5 0 -9
-7 -9 -16 0 -28 -19 -4 -31 38 -6 23 -18 48 -27 57 -14 15 -15 14 -10 -6 3
-13 3 -23 -2 -23 -12 0 -18 36 -9 52 6 11 3 20 -9 29 -14 11 -15 11 -5 0 14
-16 6 -41 -12 -41 -8 0 -17 -5 -21 -12 -4 -7 -3 -8 4 -4 7 4 12 1 12 -6 0 -9
3 -9 10 2 8 13 10 13 10 -1 0 -23 -20 -29 -93 -30 -46 0 -57 -3 -42 -10 20 -9
-49 -3 -88 7 -21 7 -35 -26 -32 -77 2 -25 -2 -36 -12 -36 -9 0 -10 4 -3 11 17
17 11 29 -7 15 -16 -12 -17 -12 -7 1 11 16 11 34 0 85 -6 28 -5 28 9 -5 l15
-35 -6 35 c-3 19 -5 94 -4 165 1 118 -13 228 -35 288 -5 11 -2 17 7 17 25 0
136 108 168 164 45 80 61 139 66 256 5 93 3 113 -19 178 l-24 73 32 62 c18 34
43 90 55 125 13 34 26 62 29 62 4 0 31 -36 59 -80z m-4087 53 c13 -16 12 -17
-3 -4 -10 7 -18 15 -18 17 0 8 8 3 21 -13z m430 -31 c6 -20 30 -75 54 -122
l42 -86 -18 -42 c-86 -202 -14 -472 156 -584 55 -36 62 -44 54 -60 -24 -44
-40 -176 -37 -300 1 -74 6 -124 12 -121 5 4 6 1 1 -7 -4 -7 -4 -15 1 -19 5 -3
15 -18 21 -33 10 -22 9 -29 -8 -44 -11 -10 -19 -12 -19 -6 0 7 5 12 10 12 6 0
10 9 10 20 0 11 -7 20 -16 20 -8 0 -12 4 -9 10 3 5 -1 22 -8 37 -14 26 -14 26
-11 -23 2 -37 1 -45 -7 -31 -6 9 -7 22 -4 28 16 25 -18 39 -91 39 -41 0 -74 4
-74 9 0 5 -15 15 -34 21 -42 13 -52 35 -28 60 17 19 18 18 31 -12 14 -31 14
-31 23 -8 5 12 6 25 3 28 -3 3 -5 0 -5 -6 0 -7 -4 -12 -10 -12 -5 0 -8 10 -6
23 2 15 9 21 22 19 15 -2 16 -1 5 7 -11 7 -23 4 -41 -9 -42 -30 -50 -44 -45
-83 3 -20 0 -46 -5 -59 l-11 -23 5 24 c3 14 0 31 -7 39 -10 12 -15 5 -28 -39
-9 -30 -20 -54 -24 -54 -5 0 -13 18 -19 40 -8 27 -14 36 -20 27 -4 -7 -5 -19
-2 -27 3 -8 1 -17 -3 -20 -10 -5 -8 41 2 65 4 8 -2 26 -13 40 l-20 25 10 -34
c10 -36 5 -55 -9 -32 -6 10 -10 9 -15 -4 -3 -9 -10 -13 -16 -10 -14 8 -52 -4
-45 -15 3 -4 -8 -6 -24 -4 -20 3 -30 0 -34 -11 -8 -20 -27 -19 -28 3 -1 9 -5
4 -9 -13 -7 -28 -8 -28 -9 -5 -1 14 -6 32 -12 40 -8 11 -9 7 -6 -18 2 -18 0
-35 -5 -38 -4 -3 -9 19 -9 48 -1 43 -3 47 -8 23 l-7 -30 -7 40 c-19 112 0 370
43 579 34 167 120 404 197 546 55 102 135 220 143 215 5 -3 14 -22 21 -43z
m2979 9 c0 -17 -13 -33 -30 -37 -3 0 -12 -4 -21 -8 -25 -11 -92 11 -107 34
-11 18 -10 20 12 20 14 0 28 -4 31 -10 10 -15 71 -12 85 5 17 21 30 19 30 -4z
m241 -48 c13 -16 12 -17 -3 -4 -10 7 -18 15 -18 17 0 8 8 3 21 -13z m-2980
-141 c-5 -10 -18 -52 -27 -93 -16 -72 -15 -193 2 -273 5 -20 4 -27 -5 -22 -26
16 -8 -17 29 -54 36 -36 53 -43 105 -43 6 0 27 2 47 6 l37 6 -27 -39 c-31 -46
-43 -48 -97 -17 -149 84 -195 382 -83 539 22 32 37 24 19 -10z m1226 2 c-3 -4
-21 -8 -39 -10 -24 -3 -29 -1 -18 6 16 11 67 14 57 4z m-552 -173 c-13 -12
-163 -61 -184 -60 -14 0 14 16 44 23 6 2 17 6 25 9 14 6 110 35 120 36 2 1 0
-3 -5 -8z m763 -12 c10 0 4 -5 -12 -11 -44 -16 -13 -28 77 -28 70 0 77 -2 77
-20 0 -19 19 -26 59 -20 9 1 12 -4 7 -15 -3 -9 -2 -13 4 -10 6 3 10 1 10 -4 0
-6 8 -11 18 -11 16 1 16 1 0 11 -10 5 -18 19 -18 31 0 19 1 19 21 -3 l20 -24
-6 23 c-4 13 -2 22 4 22 6 0 11 -6 11 -12 0 -7 8 -1 17 12 10 14 28 36 41 49
l24 23 109 -15 c140 -21 346 -72 418 -105 31 -14 61 -26 67 -28 6 -1 36 -14
66 -29 139 -68 266 -202 358 -378 17 -32 35 -55 39 -52 5 3 7 -5 3 -17 -3 -14
-2 -19 6 -14 7 4 12 2 12 -4 0 -6 5 -8 10 -5 6 3 10 15 10 27 0 25 -53 184
-80 240 -25 53 -21 57 9 10 13 -20 37 -56 53 -79 67 -99 110 -305 89 -428 -16
-93 -72 -244 -120 -324 -152 -254 -510 -497 -936 -634 -283 -91 -448 -90 -740
8 -158 53 -241 90 -410 185 -287 160 -436 303 -549 529 -57 113 -78 205 -78
341 0 95 4 129 25 193 27 85 90 198 132 237 l26 24 -30 -70 c-66 -154 -91
-262 -89 -374 0 -41 3 -61 5 -45 11 92 80 258 151 363 90 132 290 296 339 278
10 -4 14 -4 10 0 -4 4 5 13 20 21 14 7 28 11 31 9 2 -3 11 2 19 10 10 10 26
13 47 10 19 -4 24 -3 13 2 -15 6 -7 11 33 24 42 14 49 14 39 2 -9 -11 -8 -14
5 -14 9 0 16 5 16 10 0 6 15 17 33 25 78 35 450 84 433 57 -5 -8 1 -12 16 -11
13 0 17 3 10 6 -6 2 -9 10 -5 16 5 8 8 8 11 -1 2 -7 11 -12 20 -13z m185 14
c-7 -2 -21 -2 -30 0 -10 3 -4 5 12 5 17 0 24 -2 18 -5z m53 -18 c-4 -26 -13
-26 -18 -1 -3 16 -1 23 8 19 6 -2 11 -11 10 -18z m-2648 -50 c72 -35 132 -66
132 -69 0 -21 -14 -34 -28 -26 -10 4 -64 31 -122 59 l-105 51 -17 -37 c-31
-71 -97 -347 -118 -493 -18 -125 -23 -433 -11 -613 11 -167 43 -368 83 -526
17 -69 19 -85 7 -92 -18 -11 -22 -2 -53 111 -106 394 -127 917 -50 1287 22
107 81 319 103 369 11 24 26 44 33 44 7 0 73 -29 146 -65z m2693 53 c-1 -5 -1
-18 -1 -30 0 -18 -2 -20 -9 -8 -6 8 -7 18 -4 23 3 5 -1 13 -8 19 -11 7 -10 8
4 6 10 -2 18 -6 18 -10z m2546 -38 c59 -198 105 -396 123 -535 41 -305 10
-749 -75 -1071 -38 -143 -48 -165 -65 -148 -6 6 -1 41 15 99 73 263 93 409
102 740 5 195 3 236 -16 360 -35 225 -50 293 -93 415 -22 63 -40 121 -41 128
0 6 -2 12 -4 12 -8 0 -169 -69 -207 -89 -21 -11 -43 -18 -47 -15 -17 10 -8 31
19 44 100 48 249 110 262 107 8 -1 20 -22 27 -47z m-2704 13 c-13 -2 -33 -2
-45 0 -13 2 -3 4 22 4 25 0 35 -2 23 -4z m-2538 -83 c3 -6 -1 -7 -9 -4 -18 7
-21 14 -7 14 6 0 13 -4 16 -10z m1280 -61 c-42 -19 -110 -25 -119 -10 -3 5 27
13 66 19 99 13 98 13 53 -9z m-1355 -576 c55 -49 56 -141 4 -182 -29 -23 -101
-29 -135 -11 -32 18 -52 68 -46 119 10 93 110 134 177 74z m5333 -3 c30 -24
51 -81 43 -114 -22 -89 -142 -120 -203 -54 -41 46 -34 130 14 168 35 27 111
27 146 0z m-666 -144 c0 -8 -12 -16 -26 -19 l-25 -5 25 19 c13 10 24 19 25 19
0 0 1 -6 1 -14z m-4033 -85 c-5 -4 -20 -1 -34 6 -23 14 -24 14 -3 10 13 -3 26
0 30 6 5 8 8 7 11 -2 2 -7 0 -16 -4 -20z m126 4 c0 -14 -4 -25 -9 -25 -4 0 -6
11 -3 25 2 14 6 25 8 25 2 0 4 -11 4 -25z m3770 15 c0 -5 -5 -10 -11 -10 -5 0
-7 5 -4 10 3 6 8 10 11 10 2 0 4 -4 4 -10z m-123 -22 c-3 -8 -6 -5 -6 6 -1 11
2 17 5 13 3 -3 4 -12 1 -19z m40 -3 c-4 -8 -12 -15 -19 -14 -10 0 -10 2 0 6 6
2 12 12 12 21 0 8 3 13 6 9 4 -3 4 -13 1 -22z m-343 -29 c-3 -15 -8 -25 -11
-23 -2 3 -1 17 3 31 3 15 8 25 11 23 2 -3 1 -17 -3 -31z m-3687 -8 c-3 -8 -6
-5 -6 6 -1 11 2 17 5 13 3 -3 4 -12 1 -19z m370 -4 c-3 -3 -12 -4 -19 -1 -8 3
-5 6 6 6 11 1 17 -2 13 -5z m-340 -36 c-3 -8 -6 -5 -6 6 -1 11 2 17 5 13 3 -3
4 -12 1 -19z m270 -149 c4 -22 15 -34 39 -44 43 -18 43 -32 -1 -51 -23 -9 -35
-21 -35 -33 0 -58 -33 -68 -50 -15 -9 25 -21 39 -41 46 -39 13 -37 32 6 57 32
19 39 33 38 78 -1 26 38 -8 44 -38z m463 21 c9 -16 7 -26 -9 -46 -20 -26 -20
-26 -2 -62 22 -43 68 -88 179 -175 135 -106 245 -183 300 -211 28 -14 96 -56
150 -93 53 -37 120 -80 147 -96 41 -23 45 -27 20 -22 -35 7 -142 68 -231 131
-34 24 -91 53 -127 65 -36 12 -74 29 -84 38 -10 9 -35 24 -55 33 -21 10 -38
22 -38 27 0 6 -16 18 -35 27 -19 9 -33 20 -30 24 8 12 -21 31 -37 25 -9 -4
-18 1 -22 11 -4 11 -10 13 -19 6 -16 -13 -85 -25 -98 -16 -6 4 -2 12 10 21 12
8 18 19 15 25 -5 7 6 9 32 5 21 -4 32 -4 24 0 -8 3 -23 17 -34 30 -10 13 -24
22 -32 19 -8 -3 -11 0 -8 8 3 7 -2 18 -10 25 -12 10 -14 6 -12 -26 3 -48 -2
-57 -22 -41 -13 11 -15 10 -9 -4 8 -22 -1 -22 -27 -3 -31 23 -37 18 -30 -22
11 -65 43 -182 54 -202 5 -11 10 -23 10 -27 0 -16 -85 124 -102 169 -41 106
-9 260 70 345 35 37 47 40 62 12z m3346 -15 c5 -28 13 -39 40 -50 43 -18 43
-39 2 -51 -25 -7 -36 -18 -44 -44 -18 -54 -53 -50 -54 7 0 16 -10 27 -35 37
-44 19 -44 32 -1 50 28 12 36 22 42 50 9 50 40 50 50 1z m-473 -133 c-16 -21
-39 -53 -51 -73 -12 -19 -33 -41 -48 -48 -22 -10 -24 -14 -13 -27 10 -13 10
-17 -2 -25 -25 -18 -84 -43 -95 -41 -6 1 -19 -9 -28 -23 -9 -14 -21 -23 -26
-20 -5 3 -27 -6 -49 -19 -42 -27 -59 -46 -41 -46 6 0 8 -5 5 -10 -4 -6 -13 -7
-23 -1 -13 7 -29 1 -60 -20 -24 -16 -45 -29 -48 -29 -3 0 -18 -10 -34 -21 -16
-12 -35 -19 -44 -16 -9 4 -13 1 -10 -7 3 -7 -7 -18 -23 -25 -27 -12 -27 -12
-10 6 9 11 15 22 12 25 -4 3 8 10 24 16 17 6 52 31 77 56 25 26 50 46 55 46
35 0 276 189 394 309 44 45 61 57 63 45 2 -9 -9 -32 -25 -52z m-3036 -280 c5
-4 23 -33 41 -65 l31 -58 -32 6 c-18 4 -47 11 -66 17 -30 9 -33 13 -27 42 4
17 10 51 13 76 l6 45 12 -28 c7 -16 16 -32 22 -35z m2858 46 c3 -2 -3 -12 -14
-22 -18 -16 -19 -16 -23 7 -3 18 0 23 14 22 9 -1 20 -4 23 -7z m1972 -10 c-3
-8 -6 -5 -6 6 -1 11 2 17 5 13 3 -3 4 -12 1 -19z m-1026 -16 c-7 -2 -18 1 -23
6 -8 8 -4 9 13 5 13 -4 18 -8 10 -11z m1019 -26 c0 -26 -6 -18 -14 19 -5 22
-4 26 4 15 5 -8 10 -24 10 -34z m-920 23 c14 0 -11 -9 -55 -18 -44 -10 -93
-21 -110 -25 l-30 -7 25 15 c14 8 42 18 63 21 20 4 37 11 37 17 0 6 10 8 23 4
12 -3 33 -6 47 -7z m-1144 -18 c-3 -5 -16 -11 -28 -14 -22 -6 -22 -5 -4 8 22
17 40 20 32 6z m2037 -38 c-3 -25 -2 -26 7 -8 11 21 11 22 -9 -60 l-7 -30 -6
28 c-3 15 -1 27 4 27 4 0 6 11 2 24 -3 14 -3 30 1 35 10 17 12 13 8 -16z
m-1107 -8 c-11 -8 -27 -15 -35 -15 -13 1 -12 4 3 15 11 8 27 15 35 15 13 -1
12 -4 -3 -15z m-4137 -59 c189 -61 194 -64 208 -97 8 -19 48 -123 89 -232 97
-259 176 -460 183 -469 4 -4 51 130 106 298 54 168 102 307 105 309 3 2 66
-10 140 -27 74 -16 159 -32 188 -36 l53 -7 114 -345 c63 -190 117 -352 121
-360 4 -12 166 464 205 604 l10 38 147 -7 c136 -6 202 -12 209 -19 2 -1 -13
-49 -31 -107 -19 -57 -62 -192 -96 -299 -162 -519 -248 -760 -269 -760 -21 1
-244 45 -296 59 -46 12 -35 -15 -185 434 -49 147 -94 276 -99 285 -11 20 -6
33 -61 -143 -132 -423 -143 -455 -161 -455 -18 0 -234 76 -313 110 l-42 18
-96 223 c-98 229 -161 381 -332 801 -91 225 -100 248 -93 248 1 0 89 -29 196
-64z m4495 25 c25 -11 46 -25 46 -32 0 -6 -30 -48 -67 -94 l-66 -82 -30 15
c-16 8 -61 17 -100 20 l-69 5 4 78 c3 44 8 82 12 86 14 14 123 32 173 29 28
-3 72 -14 97 -25z m-569 -28 c41 -9 75 -19 75 -22 -1 -3 -24 -24 -52 -46 -94
-73 -199 -219 -243 -337 -10 -27 -20 -48 -24 -48 -3 0 -41 12 -84 26 -89 30
-88 22 -30 141 43 88 123 186 206 252 34 28 65 50 69 51 4 0 41 -7 83 -17z
m235 -86 l0 -73 -74 -51 c-99 -69 -163 -152 -205 -266 -7 -18 -25 -35 -53 -47
-61 -28 -67 -26 -62 18 7 66 9 77 17 83 5 3 9 12 11 20 2 14 26 53 92 154 46
69 137 156 209 199 33 20 61 36 63 36 1 0 2 -33 2 -73z m1061 17 c-5 -16 -10
-21 -10 -12 -1 18 10 51 15 45 2 -1 -1 -16 -5 -33z m-591 -56 c6 -22 12 -65
13 -96 l2 -57 -65 -22 c-82 -29 -110 -30 -110 -3 0 10 -7 35 -16 53 l-16 34
73 87 c73 85 74 86 91 65 10 -11 23 -39 28 -61z m-630 52 c-33 -26 -49 -26
-19 0 13 10 29 19 34 19 6 1 -1 -8 -15 -19z m-4243 -196 c40 -98 72 -182 73
-186 0 -4 -13 -14 -30 -23 -16 -9 -30 -20 -30 -26 0 -16 168 -465 202 -539 21
-45 51 -87 101 -138 75 -76 136 -122 87 -66 -14 16 -30 34 -36 39 -18 16 -53
83 -76 142 -20 55 -19 83 2 44 6 -12 16 -18 22 -15 7 4 8 3 4 -4 -4 -7 -2 -12
4 -12 7 0 9 -7 6 -17 -4 -10 -4 -14 0 -11 3 4 29 -39 57 -95 38 -79 63 -115
109 -159 33 -32 65 -58 72 -58 23 0 119 -51 162 -86 24 -20 44 -32 44 -28 0 5
5 2 10 -6 6 -9 10 -10 10 -3 0 9 8 9 31 1 17 -6 48 -8 70 -5 l39 5 0 -65 0
-64 -30 18 c-16 9 -30 21 -30 25 0 4 -21 19 -47 33 -73 40 -129 75 -119 75 24
0 -129 90 -154 90 -7 0 -34 19 -60 43 -81 74 -183 162 -191 165 -4 2 -65 65
-135 140 -115 123 -160 166 -140 133 11 -17 0 -13 -15 6 -10 11 -10 14 -1 9
23 -14 12 14 -20 49 -142 153 -214 260 -309 453 -44 91 -78 169 -76 175 4 12
298 147 312 143 6 -1 42 -83 82 -182z m4152 104 c-54 -67 -129 -199 -149 -260
-6 -21 -12 -58 -13 -84 -1 -33 -6 -48 -20 -56 -10 -5 -21 -7 -24 -5 -11 11 39
177 76 253 37 74 149 214 172 214 5 0 -14 -28 -42 -62z m1288 10 c-3 -8 -6 -5
-6 6 -1 11 2 17 5 13 3 -3 4 -12 1 -19z m-1767 -195 c0 -87 -4 -164 -9 -171
-8 -13 -286 -71 -412 -86 -117 -15 -109 -8 -109 -92 l0 -74 33 0 c34 1 350 63
380 75 16 7 17 -4 17 -154 0 -144 -2 -161 -18 -170 -10 -5 -99 -26 -198 -46
-98 -19 -189 -38 -201 -40 -23 -5 -23 -7 -23 -184 l0 -179 -25 -6 c-38 -10
-181 -34 -247 -41 l-58 -7 0 601 c0 473 3 602 13 605 6 2 66 9 132 15 138 12
394 51 563 85 182 37 162 53 162 -131z m908 127 c81 -50 96 -156 38 -275 -99
-205 -302 -303 -414 -200 -35 31 -37 36 -40 109 -4 68 -1 82 27 141 82 176
280 291 389 225z m-2008 -714 c0 -330 -2 -602 -5 -604 -2 -2 -76 -6 -164 -9
l-161 -6 0 612 0 611 166 -2 165 -3 -1 -599z m2303 527 c-30 -140 -148 -336
-266 -439 -45 -39 -156 -104 -204 -119 -23 -6 -23 -5 -23 84 l0 91 43 21 c76
39 125 78 170 137 49 64 94 147 112 207 12 39 14 41 86 62 41 12 79 22 86 22
8 1 7 -17 -4 -66z m450 -78 c-3 -9 -8 -14 -10 -11 -3 3 -2 9 2 15 9 16 15 13
8 -4z m-1223 -121 c0 -25 5 -54 11 -65 9 -17 1 -33 -48 -100 -31 -44 -60 -82
-64 -85 -13 -8 -48 102 -51 161 l-3 58 70 38 c39 21 73 39 78 39 4 0 7 -21 7
-46z m80 -154 c0 -9 96 -40 126 -40 24 0 24 -1 24 -100 l0 -100 -82 0 c-66 0
-93 5 -133 24 -58 27 -90 59 -79 78 37 62 118 156 130 151 8 -3 14 -8 14 -13z
m-4129 -197 c13 -16 12 -17 -3 -4 -17 13 -22 21 -14 21 2 0 10 -8 17 -17z
m4114 -278 c-16 -14 -34 -25 -38 -25 -5 0 -17 -10 -28 -22 -10 -13 -18 -18
-19 -11 0 6 6 14 13 17 6 3 -1 4 -18 1 -29 -4 -29 -4 5 10 19 8 51 23 70 34
47 26 50 25 15 -4z m-114 -66 c20 -10 20 -11 2 -24 -22 -18 -41 -19 -25 -3 16
16 15 29 -2 22 -17 -7 -28 -44 -13 -44 6 0 2 -7 -9 -15 -10 -8 -29 -15 -41
-15 -16 0 -20 -5 -16 -19 5 -19 -2 -22 -92 -40 -39 -8 -39 -9 -7 -10 17 0 32
-6 32 -12 0 -6 -9 -9 -20 -6 -12 3 -28 -4 -42 -18 -25 -24 -78 -42 -78 -25 0
6 -9 5 -25 -2 -30 -14 -32 -24 -5 -31 29 -7 25 -22 -12 -48 -18 -13 -36 -28
-40 -34 -4 -5 -8 13 -8 41 0 49 2 52 37 70 52 26 117 67 121 77 2 4 12 7 23 7
10 0 19 4 19 9 0 4 25 25 56 45 48 30 59 34 73 24 14 -12 14 -11 2 4 -12 16
-10 20 10 38 28 23 34 24 60 9z m-311 -229 c0 -5 -4 -10 -10 -10 -5 0 -10 5
-10 10 0 6 5 10 10 10 6 0 10 -4 10 -10z m50 5 c0 -2 -10 -10 -22 -16 -21 -11
-22 -11 -9 4 13 16 31 23 31 12z m-2477 -41 c36 -18 77 -53 77 -66 0 -4 -11
-15 -25 -24 -23 -15 -26 -15 -51 5 -56 44 -123 13 -110 -51 10 -51 52 -88 99
-88 28 0 44 -6 58 -22 34 -42 20 -58 -49 -58 -50 0 -110 36 -147 88 -26 38
-30 52 -30 109 0 60 2 67 33 94 38 34 93 39 145 13z m2102 -17 c53 -53 58
-114 15 -185 -24 -39 -100 -89 -148 -98 -68 -13 -142 50 -142 121 0 56 45 132
96 165 70 44 133 43 179 -3z m-1598 -305 c20 -45 34 -85 31 -87 -9 -9 -78 8
-78 20 0 21 -25 35 -86 46 -54 10 -60 9 -75 -10 -13 -16 -24 -20 -48 -15 -17
4 -34 10 -37 15 -3 5 8 28 24 51 16 24 46 75 67 113 21 39 47 85 58 104 l20
34 44 -94 c24 -52 60 -131 80 -177z m1143 98 c0 -93 -4 -170 -8 -170 -5 0 -43
32 -85 71 l-77 71 0 -81 0 -81 -34 0 c-29 0 -34 4 -39 27 -7 40 -9 292 -2 304
4 5 43 -25 88 -68 l82 -78 3 75 c3 95 5 100 42 100 l30 0 0 -170z m-745 96
c25 -17 25 -17 8 -46 -19 -32 -33 -36 -65 -19 -25 13 -68 4 -68 -15 0 -8 21
-22 49 -31 67 -22 101 -57 101 -104 0 -20 -7 -46 -15 -58 -31 -45 -118 -52
-187 -17 -33 17 -34 30 -8 62 18 22 20 22 44 7 28 -18 87 -17 94 3 2 7 -19 22
-52 37 -72 32 -96 56 -96 99 0 36 30 82 64 97 30 13 101 4 131 -15z m285 -146
l0 -170 -35 0 -35 0 0 170 0 170 35 0 35 0 0 -170z"/>
<path d="M4988 8673 c7 -3 16 -2 19 1 4 3 -2 6 -13 5 -11 0 -14 -3 -6 -6z"/>
<path d="M3874 7466 c-3 -8 -11 -13 -17 -11 -7 2 -30 -6 -52 -20 -22 -13 -67
-38 -100 -55 -79 -42 -157 -92 -152 -97 3 -2 28 10 57 27 28 17 102 56 163 87
117 59 152 83 122 83 -8 0 -18 -6 -21 -14z"/>
<path d="M4315 7200 c-3 -5 -1 -10 4 -10 6 0 11 5 11 10 0 6 -2 10 -4 10 -3 0
-8 -4 -11 -10z"/>
<path d="M4502 7066 c-10 -22 -9 -24 8 -23 12 1 16 5 11 10 -5 5 -7 16 -4 23
9 24 -3 15 -15 -10z"/>
<path d="M3103 7375 c0 -8 4 -12 9 -9 5 3 6 10 3 15 -9 13 -12 11 -12 -6z"/>
<path d="M3120 7319 c0 -5 5 -7 10 -4 6 3 10 8 10 11 0 2 -4 4 -10 4 -5 0 -10
-5 -10 -11z"/>
<path d="M3035 7280 c3 -5 8 -10 11 -10 2 0 4 5 4 10 0 6 -5 10 -11 10 -5 0
-7 -4 -4 -10z"/>
<path d="M2785 7091 c-3 -5 -2 -12 3 -15 5 -3 9 1 9 9 0 17 -3 19 -12 6z"/>
<path d="M2700 7005 c-7 -9 -8 -15 -2 -15 5 0 12 7 16 15 3 8 4 15 2 15 -2 0
-9 -7 -16 -15z"/>
<path d="M2670 6972 c0 -6 -10 -20 -22 -32 -16 -15 -18 -20 -6 -20 15 0 43 48
33 58 -3 3 -5 0 -5 -6z"/>
<path d="M8341 4443 c0 -6 -4 -20 -7 -30 -5 -14 -4 -15 5 -7 7 7 11 20 8 30
-3 11 -5 14 -6 7z"/>
<path d="M7040 6906 c0 -2 8 -10 18 -17 15 -13 16 -12 3 4 -13 16 -21 21 -21
13z"/>
<path d="M7203 6725 c0 -8 4 -12 9 -9 5 3 6 10 3 15 -9 13 -12 11 -12 -6z"/>
<path d="M7207 6693 c-4 -3 -7 -11 -7 -17 0 -6 5 -4 11 4 8 11 9 8 4 -14 -5
-26 -4 -28 9 -17 13 11 16 11 16 0 0 -10 4 -9 16 3 13 13 14 20 4 34 -10 17
-11 17 -6 2 7 -22 -2 -23 -24 -3 -9 8 -20 12 -23 8z"/>
<path d="M7293 6632 c-1 -22 0 -24 9 -8 6 10 6 22 2 26 -5 5 -10 -3 -11 -18z"/>
<path d="M7200 6604 c0 -8 5 -12 10 -9 6 4 8 11 5 16 -9 14 -15 11 -15 -7z"/>
<path d="M7280 6593 c0 -6 8 -17 18 -24 16 -13 16 -13 2 6 -8 11 -16 22 -17
24 -2 2 -3 0 -3 -6z"/>
<path d="M3137 6889 c7 -7 15 -10 18 -7 3 3 -2 9 -12 12 -14 6 -15 5 -6 -5z"/>
<path d="M3065 6850 c-3 -5 -2 -17 3 -27 12 -20 53 -26 45 -6 -4 10 -9 11 -18
3 -9 -8 -14 -6 -19 6 -3 9 -4 20 0 25 3 5 3 9 0 9 -3 0 -8 -4 -11 -10z"/>
<path d="M3000 6739 c0 -6 -8 -8 -19 -4 -11 3 -24 -1 -32 -11 -13 -16 -12 -16
6 -7 11 6 25 9 31 6 6 -2 17 3 24 12 8 10 9 15 1 15 -6 0 -11 -5 -11 -11z"/>
<path d="M2820 6551 c-5 -11 -10 -27 -10 -35 0 -9 -5 -16 -11 -16 -5 0 -7 5
-3 12 5 7 3 8 -5 4 -7 -5 -10 -10 -7 -13 3 -3 -4 -14 -14 -26 -15 -15 -17 -24
-9 -33 9 -11 14 -11 25 1 17 16 19 39 2 29 -7 -4 -8 -3 -4 4 4 6 12 9 20 6 8
-3 16 10 23 41 11 49 9 56 -7 26z"/>
<path d="M2967 6563 c-9 -9 -9 -33 1 -33 4 0 13 9 20 20 10 16 10 20 -1 20 -8
0 -17 -3 -20 -7z"/>
<path d="M2740 6431 c0 -5 5 -13 10 -16 6 -3 10 -2 10 4 0 5 -4 13 -10 16 -5
3 -10 2 -10 -4z"/>
<path d="M4320 6290 c0 -5 7 -10 15 -10 8 0 15 5 15 10 0 6 -7 10 -15 10 -8 0
-15 -4 -15 -10z"/>
<path d="M7147 5086 c-17 -13 -17 -14 0 -20 10 -4 14 -4 10 0 -4 4 1 13 11 20
9 7 13 13 7 13 -5 0 -18 -6 -28 -13z"/>
<path d="M7218 5053 c7 -3 16 -2 19 1 4 3 -2 6 -13 5 -11 0 -14 -3 -6 -6z"/>
<path d="M6625 4970 c-3 -5 -2 -17 3 -26 8 -14 10 -12 10 9 0 29 -3 33 -13 17z"/>
<path d="M3372 5081 c-11 -7 -10 -9 3 -14 9 -4 14 -3 10 2 -3 5 1 12 7 14 7 3
9 6 3 6 -5 0 -16 -3 -23 -8z"/>
<path d="M3081 5042 c12 -19 38 -37 44 -30 1 2 -11 14 -27 27 -28 23 -29 23
-17 3z"/>
<path d="M3306 4985 c4 -8 11 -15 16 -15 6 0 5 6 -2 15 -7 8 -14 15 -16 15 -2
0 -1 -7 2 -15z"/>
<path d="M3531 4978 c-1 -12 -10 -18 -28 -19 -17 -1 -21 -3 -10 -6 9 -2 17
-10 17 -16 0 -7 7 -3 15 7 10 13 15 15 15 6 0 -7 2 -11 5 -8 3 3 1 16 -4 29
-7 17 -10 19 -10 7z"/>
<path d="M2952 4940 c0 -14 2 -19 5 -12 2 6 2 18 0 25 -3 6 -5 1 -5 -13z"/>
<path d="M4913 5832 c-8 -5 -7 -12 4 -27 15 -20 15 -20 8 3 -4 16 -2 22 8 22
9 0 18 -6 20 -12 3 -8 6 -6 6 5 1 18 -24 23 -46 9z"/>
<path d="M4408 5783 c7 -3 10 -9 7 -14 -7 -11 3 -11 30 1 13 6 15 9 5 9 -8 1
-24 3 -35 5 -11 2 -14 1 -7 -1z"/>
<path d="M4981 5761 c-10 -7 -9 -11 6 -22 10 -8 26 -30 36 -49 15 -32 17 -33
17 -10 0 14 -7 36 -16 48 -8 12 -12 27 -9 32 8 12 -15 13 -34 1z"/>
<path d="M4978 5689 c4 -24 7 -28 13 -16 5 8 6 22 3 31 -11 27 -21 17 -16 -15z"/>
<path d="M5016 5595 c2 -64 1 -71 -5 -35 -7 38 -8 40 -9 14 -1 -17 -4 -47 -7
-65 -4 -29 -3 -30 4 -9 8 22 9 22 11 5 1 -20 2 -20 9 0 7 16 9 14 14 -14 4
-19 7 -50 7 -69 0 -32 2 -34 14 -22 13 13 12 23 -5 75 -12 33 -19 76 -17 97 2
21 0 38 -4 38 -4 0 -9 15 -11 33 -2 17 -3 -4 -1 -48z"/>
<path d="M5130 5663 c0 -14 2 -15 9 -5 6 10 10 7 15 -12 7 -28 26 -36 26 -11
0 8 -4 15 -10 15 -5 0 -10 7 -10 15 0 8 -7 15 -15 15 -8 0 -15 -8 -15 -17z"/>
<path d="M4991 5624 c0 -11 3 -14 6 -6 3 7 2 16 -1 19 -3 4 -6 -2 -5 -13z"/>
<path d="M5126 5608 c-3 -13 -6 -38 -6 -55 0 -28 -3 -33 -25 -33 -14 0 -25 -4
-25 -10 0 -5 9 -10 20 -10 11 0 20 -4 20 -10 0 -5 4 -10 9 -10 7 0 22 139 16
148 -2 1 -5 -8 -9 -20z"/>
<path d="M4370 5546 c-73 -17 -130 -43 -130 -59 0 -8 21 -20 48 -29 32 -10 46
-19 43 -29 -3 -8 -6 -34 -8 -59 -6 -62 43 -142 111 -185 45 -27 57 -30 130
-30 61 1 90 6 117 20 128 69 118 60 108 103 -13 60 -26 89 -66 149 -42 64 -91
97 -170 118 -68 18 -109 18 -183 1z m202 -93 c10 -9 18 -21 18 -28 0 -7 11
-10 29 -7 38 5 69 -35 51 -67 -20 -39 -80 -15 -80 31 0 21 -1 21 -20 3 -42
-38 -98 14 -76 71 7 19 55 18 78 -3z m-69 -238 c27 -19 16 -19 -27 -1 -42 17
-60 41 -21 26 15 -6 37 -17 48 -25z"/>
<path d="M5635 5550 c-28 -4 -64 -14 -80 -23 -46 -24 -112 -97 -133 -147 -27
-63 -48 -165 -32 -155 5 3 27 -6 49 -20 114 -76 245 -71 328 11 58 58 78 145
49 215 -6 13 1 18 28 23 19 4 45 15 58 26 l23 19 -37 15 c-72 30 -180 46 -253
36z m-21 -112 c23 -32 1 -63 -45 -63 -30 0 -34 3 -37 28 -6 55 51 79 82 35z
m92 -57 c9 -18 13 -19 17 -7 9 23 54 20 67 -3 14 -27 13 -37 -6 -55 -23 -24
-53 -20 -66 9 -7 16 -17 24 -26 20 -19 -7 -42 12 -42 35 0 35 39 36 56 1z m8
-140 c9 -14 -6 -21 -21 -9 -10 8 -12 8 -8 -4 4 -10 -1 -17 -14 -21 -24 -6 -25
-4 -9 23 13 20 43 27 52 11z"/>
<path d="M5148 5480 c-2 -22 0 -40 4 -40 5 0 8 18 8 40 0 22 -2 40 -4 40 -2 0
-6 -18 -8 -40z"/>
<path d="M5021 5455 c-1 -17 -3 -18 -12 -5 -9 12 -10 12 -5 -3 3 -10 6 -35 7
-55 l1 -37 9 40 c6 22 8 49 6 60 l-4 20 -2 -20z"/>
<path d="M4982 5415 c0 -16 2 -22 5 -12 2 9 2 23 0 30 -3 6 -5 -1 -5 -18z"/>
<path d="M5220 5290 c0 -5 5 -10 11 -10 5 0 7 5 4 10 -3 6 -8 10 -11 10 -2 0
-4 -4 -4 -10z"/>
<path d="M5235 5260 c28 -12 37 -12 30 0 -3 6 -16 10 -28 9 -21 0 -21 -1 -2
-9z"/>
<path d="M5009 5140 c-130 -22 -187 -95 -143 -183 32 -63 87 -106 171 -131 23
-7 36 -44 28 -79 -8 -31 -87 -73 -166 -88 -130 -24 -222 31 -269 160 -18 47
-27 61 -43 61 -18 0 -19 -5 -14 -58 2 -32 14 -76 25 -98 26 -50 98 -118 144
-134 29 -11 40 -23 57 -64 31 -75 74 -121 145 -156 55 -27 74 -31 148 -32 101
-1 172 26 228 86 38 40 80 112 80 136 0 10 16 20 45 28 91 24 165 123 181 240
6 50 6 52 -18 52 -21 0 -26 -7 -37 -48 -34 -134 -154 -204 -293 -172 -108 26
-158 64 -158 122 0 26 4 38 14 38 17 0 145 85 164 108 7 9 16 32 22 51 20 74
-46 139 -164 160 -66 12 -80 12 -147 1z m186 -58 c16 -9 -7 -11 -109 -12 -79
0 -126 4 -120 9 5 5 20 12 34 14 42 9 174 1 195 -11z m-109 -535 c4 -30 13
-31 20 -3 7 31 5 31 88 6 74 -23 83 -31 59 -56 -62 -62 -246 -60 -310 2 -23
22 -14 32 45 53 67 23 94 23 98 -2z"/>
<path d="M4075 4441 c19 -22 55 -46 55 -38 0 3 -17 17 -37 33 -31 23 -34 24
-18 5z"/>
<path d="M4170 4383 c0 -13 255 -164 275 -163 3 0 26 -10 53 -23 72 -36 201
-79 218 -73 8 3 13 2 9 -3 -6 -11 162 -53 217 -54 20 -1 35 -4 32 -8 -2 -3 26
-9 62 -12 125 -12 334 27 494 91 32 13 64 25 70 26 3 1 14 7 25 13 29 18 9 15
-63 -7 -219 -69 -360 -94 -497 -91 -150 3 -165 5 -165 15 0 4 -17 5 -37 2 -26
-5 -33 -4 -24 3 11 7 5 11 -25 17 -21 4 -53 13 -70 20 -17 7 -42 11 -55 8 -19
-5 -21 -4 -9 5 13 9 13 11 -2 11 -48 0 -440 175 -490 218 -10 8 -18 11 -18 5z
m1280 -263 c-8 -5 -19 -10 -25 -10 -5 0 -3 5 5 10 8 5 20 10 25 10 6 0 3 -5
-5 -10z m-633 -16 c-3 -3 -12 -4 -19 -1 -8 3 -5 6 6 6 11 1 17 -2 13 -5z"/>
<path d="M5898 4313 c-10 -2 -18 -9 -18 -14 0 -6 8 -5 20 1 11 6 20 13 20 15
0 3 -1 4 -2 4 -2 -1 -11 -3 -20 -6z"/>
<path d="M5650 4190 c0 -13 11 -13 30 0 12 8 11 10 -7 10 -13 0 -23 -4 -23
-10z"/>
<path d="M3515 2950 c27 -12 43 -12 25 0 -8 5 -22 9 -30 9 -10 0 -8 -3 5 -9z"/>
<path d="M3585 2925 c50 -21 83 -26 40 -6 -22 11 -47 19 -55 19 -8 0 -1 -5 15
-13z"/>
<path d="M3720 2899 c0 -7 -10 -9 -27 -5 -21 5 -24 4 -13 -4 22 -15 50 -12 50
5 0 8 -2 15 -5 15 -3 0 -5 -5 -5 -11z"/>
<path d="M4438 2713 c7 -3 16 -2 19 1 4 3 -2 6 -13 5 -11 0 -14 -3 -6 -6z"/>
<path d="M7295 4169 c-11 -17 -2 -18 19 -3 17 12 17 14 4 14 -9 0 -20 -5 -23
-11z"/>
<path d="M5995 3113 c-11 -3 -24 -9 -29 -13 -4 -5 11 -4 35 1 24 6 45 12 48
15 5 5 -27 3 -54 -3z"/>
<path d="M5891 2814 c0 -11 3 -14 6 -6 3 7 2 16 -1 19 -3 4 -6 -2 -5 -13z"/>
<path d="M5818 2713 c7 -3 16 -2 19 1 4 3 -2 6 -13 5 -11 0 -14 -3 -6 -6z"/>
<path d="M5758 2703 c6 -2 18 -2 25 0 6 3 1 5 -13 5 -14 0 -19 -2 -12 -5z"/>
<path d="M7257 3906 c-70 -26 -177 -118 -207 -180 -29 -61 -42 -141 -30 -187
15 -53 54 -79 122 -79 94 0 187 71 260 198 83 146 -5 298 -145 248z m36 -70
c2 -6 13 0 25 14 26 32 38 20 25 -25 -8 -25 -8 -35 1 -38 8 -3 7 -8 -2 -18
-10 -10 -17 -11 -31 -2 -13 8 -21 9 -29 1 -8 -8 -15 -8 -25 0 -11 9 -16 7 -25
-13 -6 -14 -16 -25 -22 -25 -5 0 -10 -4 -10 -10 0 -5 20 0 44 12 42 20 46 20
70 4 69 -44 -14 -214 -86 -175 -16 9 -24 7 -39 -10 -11 -12 -30 -21 -42 -21
-59 0 -65 70 -11 130 31 34 33 40 17 40 -21 0 -46 60 -36 86 6 17 40 18 46 2
3 -7 6 -3 6 9 1 28 17 38 29 17 8 -14 10 -12 16 10 3 14 13 26 22 26 8 0 17 7
21 16 6 15 7 15 19 -1 7 -10 15 -23 17 -29z"/>
<path d="M5228 2663 c18 -2 45 -2 60 0 15 2 0 4 -33 4 -33 0 -45 -2 -27 -4z"/>
<path d="M6480 2601 c0 -5 6 -12 13 -14 9 -4 8 -8 -3 -16 -13 -10 -13 -11 0
-11 8 0 21 4 28 9 11 6 11 10 0 18 -25 19 -38 24 -38 14z"/>
<path d="M6104 2520 c-26 -10 -74 -67 -74 -86 0 -19 19 -57 34 -66 36 -25 103
7 131 62 19 37 6 76 -30 90 -30 12 -33 12 -61 0z"/>
<path d="M4492 2355 c-17 -37 -15 -42 18 -47 34 -5 34 -4 19 41 -13 38 -22 39
-37 6z"/>
</g>
</svg>
